<svg width="40" height="36" viewBox="0 0 40 36" fill="none" xmlns="http://www.w3.org/2000/svg">
<path d="M5.45257 34.5479C5.45257 34.5479 5.40557 35.441 6.29864 35.441C7.37972 35.441 16.3574 35.441 16.3574 35.441V27.1683C16.3574 27.1683 16.2164 25.8052 17.5325 25.8052H21.7158C23.2669 25.8052 23.1729 27.1683 23.1729 27.1683V35.394C23.1729 35.394 31.6805 35.394 33.0436 35.394C34.1717 35.394 34.1247 34.2659 34.1247 34.2659V19.0367L20.2117 6.6748L5.45257 19.0367V34.5479Z" fill="white"/>
<path d="M0 17.9083C0 17.9083 1.2691 20.2115 3.9953 17.9083L20.3055 4.08931L35.6287 17.8143C38.7779 20.1175 40 17.8143 40 17.8143L20.3055 0L0 17.9083Z" fill="white"/>
<path d="M35.2525 4.04199H31.3042L31.3512 8.83635L35.2525 12.1736V4.04199Z" fill="white"/>
</svg>
